<svg id="Layer_1" data-name="Layer 1" xmlns="http://www.w3.org/2000/svg" viewBox="0 0 113.03 122.88"><defs><style>.cls-1{fill-rule:evenodd;}</style></defs><title>pull-up-door</title><path class="cls-1" d="M102.38,0H109a4.05,4.05,0,0,1,4,4V118.85a4.05,4.05,0,0,1-4,4h-6.62a4,4,0,0,1-4-4V110a4,4,0,0,1-.78.07H72.14a4.28,4.28,0,0,1-4.26-4.25V95.43h-29l-6.5-.37a23.76,23.76,0,0,1-6.52-2.14,24.14,24.14,0,0,1-6.37-4.66H0V81.79H17.4c4.34,0,4.49.13,5.25,1.42a9.22,9.22,0,0,0,2.59,2.69,18.27,18.27,0,0,0,11.12,3.83H69.52a4,4,0,0,0,3.6-2.28h0a4.09,4.09,0,0,0-.35-3.78c-1.3-1.87-3-1.7-4.9-1.7H66.82A.88.88,0,0,1,66,81.1V77h0a.87.87,0,0,1,.86-.87H78.16c4.88,0,4.85-7.82,0-7.82H66.82a.88.88,0,0,1-.86-.85V63.22a.86.86,0,0,1,.86-.85H85c4.8,0,4.86-7.82,0-7.82H66.79a.86.86,0,0,1-.86-.86h0V49.54a.87.87,0,0,1,.86-.85H78c4.9,0,4.89-7.78,0-7.78H52.15c-1.36-.09-12.06.45-8.67-4.49a14,14,0,0,1,1.27-1.81c.57-.7,1.19-1.42,1.81-2.12C47.9,31,49.4,29.42,50,28.84h0a9.16,9.16,0,0,0,2.11-3.36,3.8,3.8,0,0,0,.36-1.63,3.85,3.85,0,0,0-2.85-3.72A4.79,4.79,0,0,0,48.4,20a5.06,5.06,0,0,0-2.31.57c-2.08.94-4.38,3.71-6,5.38C35.62,30.42,27.2,38.86,22.45,45.38l-.16.2a10.13,10.13,0,0,1-6.65,2.59H0V41.58H17.67c4.48-6.16,11.85-13.24,16.86-18.12,2.84-2.72,6.33-6.91,9.89-8.36a10.32,10.32,0,0,1,4.07-.83,10.14,10.14,0,0,1,2.39.28,9.79,9.79,0,0,1,2.22.85,9.35,9.35,0,0,1,2,1.39,8.68,8.68,0,0,1,1.5,1.86,10.33,10.33,0,0,1,1,2.2A10.19,10.19,0,0,1,58,23.76a10.58,10.58,0,0,1-.49,3.16A14.48,14.48,0,0,1,54,32.64L52.63,34l-.85.92H53.2a9.12,9.12,0,0,1,1,.12H67.88V17.56a4.28,4.28,0,0,1,4.26-4.26H97.57a4,4,0,0,1,.78.07V4a4,4,0,0,1,4-4ZM28,60.82l9.9-9.74a3.15,3.15,0,1,1,4.91,4l-6.35,5.2h16.7c4.14,0,4.14,6.3,0,6.3H36.44l6.35,5.22a3.15,3.15,0,0,1-4.92,3.95l-9.78-9.63c-1.88-1.86-2-3.43-.11-5.26Zm47.16,32v4.43a5.39,5.39,0,0,0,5.38,5.38H98.34V20.71H80.52a5.39,5.39,0,0,0-5.38,5.38v9H78a9,9,0,0,1,3.55.74,9.23,9.23,0,0,1,3,2.11,9.49,9.49,0,0,1,2,3.12,10,10,0,0,1,.7,3.62v0a10.31,10.31,0,0,1-.4,2.81c-.12.43-.91,1.25-.46,1.25h.43c10.08.05,12.85,14.53,3.58,18.59a14.91,14.91,0,0,1-3.55.74H86.5a10.81,10.81,0,0,1,.21,7.82,9.72,9.72,0,0,1-2,3.11,9.23,9.23,0,0,1-3,2.11,9,9,0,0,1-3.55.73h-.85a10.13,10.13,0,0,1-1.94,10.73l-.25.25Z"/></svg>